<svg width="1147" height="935" viewBox="0 0 1147 935" fill="none" xmlns="http://www.w3.org/2000/svg">
<circle cx="42.2886" cy="35.2886" r="44.7632" stroke="#1A1A1A" stroke-width="2"/>
<circle cx="133.816" cy="35.2886" r="44.7632" stroke="#1A1A1A" stroke-width="2"/>
<circle cx="225.341" cy="35.2886" r="44.7632" stroke="#1A1A1A" stroke-width="2"/>
<circle cx="316.869" cy="35.2886" r="44.7632" stroke="#1A1A1A" stroke-width="2"/>
<circle cx="408.396" cy="35.2886" r="44.7632" stroke="#1A1A1A" stroke-width="2"/>
<circle cx="499.921" cy="35.2886" r="44.7632" stroke="#1A1A1A" stroke-width="2"/>
<circle cx="591.447" cy="35.2886" r="44.7632" stroke="#1A1A1A" stroke-width="2"/>
<circle cx="682.974" cy="35.2886" r="44.7632" stroke="#1A1A1A" stroke-width="2"/>
<circle cx="774.501" cy="35.2886" r="44.7632" stroke="#1A1A1A" stroke-width="2"/>
<circle cx="866.027" cy="35.2886" r="44.7632" stroke="#1A1A1A" stroke-width="2"/>
<circle cx="957.552" cy="35.2886" r="44.7632" stroke="#1A1A1A" stroke-width="2"/>
<circle cx="1049.08" cy="35.2886" r="44.7632" stroke="#1A1A1A" stroke-width="2"/>
<circle cx="1140.61" cy="35.2886" r="44.7632" stroke="#1A1A1A" stroke-width="2"/>
<circle cx="42.2886" cy="126.816" r="44.7632" stroke="#1A1A1A" stroke-width="2"/>
<circle cx="133.816" cy="126.816" r="44.7632" stroke="#1A1A1A" stroke-width="2"/>
<circle cx="225.341" cy="126.816" r="44.7632" stroke="#1A1A1A" stroke-width="2"/>
<circle cx="316.869" cy="126.816" r="44.7632" stroke="#1A1A1A" stroke-width="2"/>
<circle cx="408.396" cy="126.816" r="44.7632" stroke="#1A1A1A" stroke-width="2"/>
<circle cx="499.921" cy="126.816" r="44.7632" stroke="#1A1A1A" stroke-width="2"/>
<circle cx="591.447" cy="126.816" r="44.7632" stroke="#1A1A1A" stroke-width="2"/>
<circle cx="682.974" cy="126.816" r="44.7632" stroke="#1A1A1A" stroke-width="2"/>
<circle cx="774.5" cy="126.816" r="44.7632" stroke="#1A1A1A" stroke-width="2"/>
<circle cx="866.027" cy="126.816" r="44.7632" stroke="#1A1A1A" stroke-width="2"/>
<circle cx="957.552" cy="126.816" r="44.7632" stroke="#1A1A1A" stroke-width="2"/>
<circle cx="1049.08" cy="126.816" r="44.7632" stroke="#1A1A1A" stroke-width="2"/>
<circle cx="1140.61" cy="126.816" r="44.7632" stroke="#1A1A1A" stroke-width="2"/>
<circle cx="42.2886" cy="218.342" r="44.7632" stroke="#1A1A1A" stroke-width="2"/>
<circle cx="133.816" cy="218.342" r="44.7632" stroke="#1A1A1A" stroke-width="2"/>
<circle cx="225.341" cy="218.342" r="44.7632" stroke="#1A1A1A" stroke-width="2"/>
<circle cx="316.869" cy="218.342" r="44.7632" stroke="#1A1A1A" stroke-width="2"/>
<circle cx="408.396" cy="218.342" r="44.7632" stroke="#1A1A1A" stroke-width="2"/>
<circle cx="499.921" cy="218.342" r="44.7632" stroke="#1A1A1A" stroke-width="2"/>
<circle cx="591.447" cy="218.342" r="44.7632" stroke="#1A1A1A" stroke-width="2"/>
<circle cx="682.974" cy="218.342" r="44.7632" stroke="#1A1A1A" stroke-width="2"/>
<circle cx="774.501" cy="218.342" r="44.7632" stroke="#1A1A1A" stroke-width="2"/>
<circle cx="866.027" cy="218.342" r="44.7632" stroke="#1A1A1A" stroke-width="2"/>
<circle cx="957.552" cy="218.342" r="44.7632" stroke="#1A1A1A" stroke-width="2"/>
<circle cx="1049.08" cy="218.342" r="44.7632" stroke="#1A1A1A" stroke-width="2"/>
<circle cx="1140.61" cy="218.342" r="44.7632" stroke="#1A1A1A" stroke-width="2"/>
<circle cx="42.2886" cy="309.869" r="44.7632" stroke="#1A1A1A" stroke-width="2"/>
<circle cx="133.816" cy="309.869" r="44.7632" stroke="#1A1A1A" stroke-width="2"/>
<circle cx="225.341" cy="309.869" r="44.7632" stroke="#1A1A1A" stroke-width="2"/>
<circle cx="316.869" cy="309.869" r="44.7632" stroke="#1A1A1A" stroke-width="2"/>
<circle cx="408.396" cy="309.869" r="44.7632" stroke="#1A1A1A" stroke-width="2"/>
<circle cx="499.921" cy="309.869" r="44.7632" stroke="#1A1A1A" stroke-width="2"/>
<circle cx="591.447" cy="309.869" r="44.7632" stroke="#1A1A1A" stroke-width="2"/>
<circle cx="682.974" cy="309.869" r="44.7632" stroke="#1A1A1A" stroke-width="2"/>
<circle cx="774.501" cy="309.869" r="44.7632" stroke="#1A1A1A" stroke-width="2"/>
<circle cx="866.027" cy="309.869" r="44.7632" stroke="#1A1A1A" stroke-width="2"/>
<circle cx="957.552" cy="309.869" r="44.7632" stroke="#1A1A1A" stroke-width="2"/>
<circle cx="1049.08" cy="309.869" r="44.7632" stroke="#1A1A1A" stroke-width="2"/>
<circle cx="1140.61" cy="309.869" r="44.7632" stroke="#1A1A1A" stroke-width="2"/>
<circle cx="42.2886" cy="401.395" r="44.7632" stroke="#1A1A1A" stroke-width="2"/>
<circle cx="133.816" cy="401.395" r="44.7632" stroke="#1A1A1A" stroke-width="2"/>
<circle cx="225.341" cy="401.395" r="44.7632" stroke="#1A1A1A" stroke-width="2"/>
<circle cx="316.869" cy="401.395" r="44.7632" stroke="#1A1A1A" stroke-width="2"/>
<circle cx="408.396" cy="401.395" r="44.7632" stroke="#1A1A1A" stroke-width="2"/>
<circle cx="499.921" cy="401.395" r="44.7632" stroke="#1A1A1A" stroke-width="2"/>
<circle cx="591.447" cy="401.395" r="44.7632" stroke="#1A1A1A" stroke-width="2"/>
<circle cx="682.974" cy="401.395" r="44.7632" stroke="#1A1A1A" stroke-width="2"/>
<circle cx="774.5" cy="401.395" r="44.7632" stroke="#1A1A1A" stroke-width="2"/>
<circle cx="866.027" cy="401.395" r="44.7632" stroke="#1A1A1A" stroke-width="2"/>
<circle cx="957.552" cy="401.395" r="44.7632" stroke="#1A1A1A" stroke-width="2"/>
<circle cx="1049.08" cy="401.395" r="44.7632" stroke="#1A1A1A" stroke-width="2"/>
<circle cx="1140.61" cy="401.395" r="44.7632" stroke="#1A1A1A" stroke-width="2"/>
<circle cx="42.2886" cy="492.921" r="44.7632" stroke="#1A1A1A" stroke-width="2"/>
<circle cx="133.816" cy="492.921" r="44.7632" stroke="#1A1A1A" stroke-width="2"/>
<circle cx="225.341" cy="492.921" r="44.7632" stroke="#1A1A1A" stroke-width="2"/>
<circle cx="316.869" cy="492.921" r="44.7632" stroke="#1A1A1A" stroke-width="2"/>
<circle cx="408.396" cy="492.921" r="44.7632" stroke="#1A1A1A" stroke-width="2"/>
<circle cx="499.921" cy="492.921" r="44.7632" stroke="#1A1A1A" stroke-width="2"/>
<circle cx="591.447" cy="492.921" r="44.7632" stroke="#1A1A1A" stroke-width="2"/>
<circle cx="682.974" cy="492.921" r="44.7632" stroke="#1A1A1A" stroke-width="2"/>
<circle cx="774.501" cy="492.921" r="44.7632" stroke="#1A1A1A" stroke-width="2"/>
<circle cx="866.027" cy="492.921" r="44.7632" stroke="#1A1A1A" stroke-width="2"/>
<circle cx="957.552" cy="492.921" r="44.7632" stroke="#1A1A1A" stroke-width="2"/>
<circle cx="1049.08" cy="492.921" r="44.7632" stroke="#1A1A1A" stroke-width="2"/>
<circle cx="1140.61" cy="492.921" r="44.7632" stroke="#1A1A1A" stroke-width="2"/>
<circle cx="42.2886" cy="584.448" r="44.7632" stroke="#1A1A1A" stroke-width="2"/>
<circle cx="133.816" cy="584.448" r="44.7632" stroke="#1A1A1A" stroke-width="2"/>
<circle cx="225.341" cy="584.448" r="44.7632" stroke="#1A1A1A" stroke-width="2"/>
<circle cx="316.869" cy="584.448" r="44.7632" stroke="#1A1A1A" stroke-width="2"/>
<circle cx="408.396" cy="584.448" r="44.7632" stroke="#1A1A1A" stroke-width="2"/>
<circle cx="499.921" cy="584.448" r="44.7632" stroke="#1A1A1A" stroke-width="2"/>
<circle cx="591.447" cy="584.448" r="44.7632" stroke="#1A1A1A" stroke-width="2"/>
<circle cx="682.974" cy="584.448" r="44.7632" stroke="#1A1A1A" stroke-width="2"/>
<circle cx="774.5" cy="584.448" r="44.7632" stroke="#1A1A1A" stroke-width="2"/>
<circle cx="866.027" cy="584.448" r="44.7632" stroke="#1A1A1A" stroke-width="2"/>
<circle cx="957.552" cy="584.448" r="44.7632" stroke="#1A1A1A" stroke-width="2"/>
<circle cx="1049.08" cy="584.448" r="44.7632" stroke="#1A1A1A" stroke-width="2"/>
<circle cx="1140.61" cy="584.448" r="44.7632" stroke="#1A1A1A" stroke-width="2"/>
<circle cx="42.2886" cy="675.974" r="44.7632" stroke="#1A1A1A" stroke-width="2"/>
<circle cx="133.816" cy="675.974" r="44.7632" stroke="#1A1A1A" stroke-width="2"/>
<circle cx="225.341" cy="675.974" r="44.7632" stroke="#1A1A1A" stroke-width="2"/>
<circle cx="316.869" cy="675.974" r="44.7632" stroke="#1A1A1A" stroke-width="2"/>
<circle cx="408.396" cy="675.974" r="44.7632" stroke="#1A1A1A" stroke-width="2"/>
<circle cx="499.921" cy="675.974" r="44.7632" stroke="#1A1A1A" stroke-width="2"/>
<circle cx="591.447" cy="675.974" r="44.7632" stroke="#1A1A1A" stroke-width="2"/>
<circle cx="682.974" cy="675.974" r="44.7632" stroke="#1A1A1A" stroke-width="2"/>
<circle cx="774.501" cy="675.974" r="44.7632" stroke="#1A1A1A" stroke-width="2"/>
<circle cx="866.027" cy="675.974" r="44.7632" stroke="#1A1A1A" stroke-width="2"/>
<circle cx="957.552" cy="675.974" r="44.7632" stroke="#1A1A1A" stroke-width="2"/>
<circle cx="1049.08" cy="675.974" r="44.7632" stroke="#1A1A1A" stroke-width="2"/>
<circle cx="1140.61" cy="675.974" r="44.7632" stroke="#1A1A1A" stroke-width="2"/>
<circle cx="42.2886" cy="767.5" r="44.7632" stroke="#1A1A1A" stroke-width="2"/>
<circle cx="133.816" cy="767.5" r="44.7632" stroke="#1A1A1A" stroke-width="2"/>
<circle cx="225.341" cy="767.5" r="44.7632" stroke="#1A1A1A" stroke-width="2"/>
<circle cx="316.869" cy="767.5" r="44.7632" stroke="#1A1A1A" stroke-width="2"/>
<circle cx="408.396" cy="767.5" r="44.7632" stroke="#1A1A1A" stroke-width="2"/>
<circle cx="499.921" cy="767.5" r="44.7632" stroke="#1A1A1A" stroke-width="2"/>
<circle cx="591.447" cy="767.5" r="44.7632" stroke="#1A1A1A" stroke-width="2"/>
<circle cx="682.974" cy="767.5" r="44.7632" stroke="#1A1A1A" stroke-width="2"/>
<circle cx="774.5" cy="767.5" r="44.7632" stroke="#1A1A1A" stroke-width="2"/>
<circle cx="866.027" cy="767.5" r="44.7632" stroke="#1A1A1A" stroke-width="2"/>
<circle cx="957.552" cy="767.5" r="44.7632" stroke="#1A1A1A" stroke-width="2"/>
<circle cx="1049.08" cy="767.5" r="44.7632" stroke="#1A1A1A" stroke-width="2"/>
<circle cx="1140.61" cy="767.5" r="44.7632" stroke="#1A1A1A" stroke-width="2"/>
<circle cx="42.2886" cy="859.027" r="44.7632" stroke="#1A1A1A" stroke-width="2"/>
<circle cx="133.816" cy="859.027" r="44.7632" stroke="#1A1A1A" stroke-width="2"/>
<circle cx="225.341" cy="859.027" r="44.7632" stroke="#1A1A1A" stroke-width="2"/>
<circle cx="316.869" cy="859.027" r="44.7632" stroke="#1A1A1A" stroke-width="2"/>
<circle cx="408.396" cy="859.027" r="44.7632" stroke="#1A1A1A" stroke-width="2"/>
<circle cx="499.921" cy="859.027" r="44.7632" stroke="#1A1A1A" stroke-width="2"/>
<circle cx="591.447" cy="859.027" r="44.7632" stroke="#1A1A1A" stroke-width="2"/>
<circle cx="682.974" cy="859.027" r="44.7632" stroke="#1A1A1A" stroke-width="2"/>
<circle cx="774.5" cy="859.027" r="44.7632" stroke="#1A1A1A" stroke-width="2"/>
<circle cx="866.027" cy="859.027" r="44.7632" stroke="#1A1A1A" stroke-width="2"/>
<circle cx="957.552" cy="859.027" r="44.7632" stroke="#1A1A1A" stroke-width="2"/>
<circle cx="1049.08" cy="859.027" r="44.7632" stroke="#1A1A1A" stroke-width="2"/>
<circle cx="1140.61" cy="859.027" r="44.7632" stroke="#1A1A1A" stroke-width="2"/>
<circle cx="42.2886" cy="950.553" r="44.7632" stroke="#1A1A1A" stroke-width="2"/>
<circle cx="133.816" cy="950.553" r="44.7632" stroke="#1A1A1A" stroke-width="2"/>
<circle cx="225.341" cy="950.553" r="44.7632" stroke="#1A1A1A" stroke-width="2"/>
<circle cx="316.869" cy="950.553" r="44.7632" stroke="#1A1A1A" stroke-width="2"/>
<circle cx="408.396" cy="950.553" r="44.7632" stroke="#1A1A1A" stroke-width="2"/>
<circle cx="499.921" cy="950.553" r="44.7632" stroke="#1A1A1A" stroke-width="2"/>
<circle cx="591.447" cy="950.553" r="44.7632" stroke="#1A1A1A" stroke-width="2"/>
<circle cx="682.974" cy="950.553" r="44.7632" stroke="#1A1A1A" stroke-width="2"/>
<circle cx="774.501" cy="950.553" r="44.7632" stroke="#1A1A1A" stroke-width="2"/>
<circle cx="866.027" cy="950.553" r="44.7632" stroke="#1A1A1A" stroke-width="2"/>
<circle cx="957.552" cy="950.553" r="44.7632" stroke="#1A1A1A" stroke-width="2"/>
<circle cx="1049.08" cy="950.553" r="44.7632" stroke="#1A1A1A" stroke-width="2"/>
<circle cx="1140.61" cy="950.553" r="44.7632" stroke="#1A1A1A" stroke-width="2"/>
</svg>
