<svg width="27" height="28" viewBox="0 0 27 28" fill="none" xmlns="http://www.w3.org/2000/svg">
<g clip-path="url(#clip0_535_1249)">
<path d="M13.6819 1.2887C10.4958 1.2887 7.91003 3.87449 7.91003 7.06055C7.91003 10.2466 10.4958 12.8324 13.6819 12.8324C16.868 12.8324 19.4537 10.2466 19.4537 7.06055C19.4537 3.87449 16.868 1.2887 13.6819 1.2887ZM13.6819 3.02025C14.64 3.02025 15.4134 3.79368 15.4134 4.75181C15.4134 5.70994 14.64 6.48337 13.6819 6.48337C12.7238 6.48337 11.9503 5.70994 11.9503 4.75181C11.9503 3.79368 12.7238 3.02025 13.6819 3.02025ZM13.6819 11.2163C12.2389 11.2163 10.9633 10.4775 10.2188 9.35775C10.2361 8.20915 12.5275 7.58002 13.6819 7.58002C14.8305 7.58002 17.1277 8.20915 17.145 9.35775C16.4004 10.4775 15.1249 11.2163 13.6819 11.2163Z" fill="black"/>
</g>
<path d="M0.744465 23.2961C0.693673 23.2961 0.675203 23.2707 0.689055 23.22L2.21975 18.8149C2.2336 18.7779 2.26131 18.7595 2.30287 18.7595H2.9193C2.96086 18.7595 2.98856 18.7779 3.00241 18.8149L4.55389 23.22C4.56774 23.2707 4.54927 23.2961 4.49848 23.2961H4.00672C3.96516 23.2961 3.93746 23.2777 3.9236 23.2407L2.88467 20.1239C2.83849 19.9854 2.79232 19.8469 2.74614 19.7084C2.69997 19.5698 2.65149 19.4313 2.60069 19.2928H2.59377C2.54759 19.4267 2.50142 19.5629 2.45524 19.7014C2.40907 19.8353 2.36289 19.9692 2.31672 20.1032L1.29164 23.2407C1.27778 23.2777 1.25008 23.2961 1.20852 23.2961H0.744465ZM1.51328 22.2364L1.65873 21.7239H3.54266L3.69504 22.2364H1.51328ZM6.57932 23.3793C6.11757 23.3793 5.76665 23.2638 5.52654 23.0329C5.28643 22.8021 5.16637 22.4696 5.16637 22.0356V21.1767C5.16637 20.7427 5.28874 20.4102 5.53346 20.1793C5.77819 19.9485 6.13143 19.833 6.59318 19.833C6.86561 19.833 7.09879 19.8746 7.29272 19.9577C7.48666 20.0408 7.63673 20.1563 7.74293 20.304C7.84913 20.4472 7.90223 20.618 7.90223 20.8166C7.90223 20.9228 7.87914 20.9759 7.83297 20.9759H7.37584C7.33428 20.9759 7.3135 20.9389 7.3135 20.865C7.3135 20.7034 7.24886 20.5788 7.11957 20.491C6.99028 20.3987 6.81481 20.3525 6.59318 20.3525C6.31151 20.3525 6.10141 20.4241 5.96289 20.5672C5.82436 20.7104 5.7551 20.932 5.7551 21.2321V21.9802C5.7551 22.2757 5.82436 22.4973 5.96289 22.6451C6.10141 22.7882 6.3092 22.8598 6.58625 22.8598C6.80789 22.8598 6.98335 22.8113 7.11264 22.7143C7.24193 22.6174 7.30658 22.4973 7.30658 22.3542C7.30658 22.2803 7.32736 22.2434 7.36891 22.2434H7.82604C7.87222 22.2434 7.89531 22.2641 7.89531 22.3057C7.89531 22.6335 7.78218 22.8944 7.55592 23.0884C7.32966 23.2823 7.00413 23.3793 6.57932 23.3793ZM10.2621 23.3793C9.80038 23.3793 9.44945 23.2638 9.20934 23.0329C8.96923 22.8021 8.84918 22.4696 8.84918 22.0356V21.1767C8.84918 20.7427 8.97154 20.4102 9.21627 20.1793C9.46099 19.9485 9.81423 19.833 10.276 19.833C10.5484 19.833 10.7816 19.8746 10.9755 19.9577C11.1695 20.0408 11.3195 20.1563 11.4257 20.304C11.5319 20.4472 11.585 20.618 11.585 20.8166C11.585 20.9228 11.5619 20.9759 11.5158 20.9759H11.0586C11.0171 20.9759 10.9963 20.9389 10.9963 20.865C10.9963 20.7034 10.9317 20.5788 10.8024 20.491C10.6731 20.3987 10.4976 20.3525 10.276 20.3525C9.99431 20.3525 9.78422 20.4241 9.64569 20.5672C9.50717 20.7104 9.43791 20.932 9.43791 21.2321V21.9802C9.43791 22.2757 9.50717 22.4973 9.64569 22.6451C9.78422 22.7882 9.992 22.8598 10.2691 22.8598C10.4907 22.8598 10.6662 22.8113 10.7954 22.7143C10.9247 22.6174 10.9894 22.4973 10.9894 22.3542C10.9894 22.2803 11.0102 22.2434 11.0517 22.2434H11.5088C11.555 22.2434 11.5781 22.2641 11.5781 22.3057C11.5781 22.6335 11.465 22.8944 11.2387 23.0884C11.0125 23.2823 10.6869 23.3793 10.2621 23.3793ZM13.9588 23.3793C13.4924 23.3793 13.1369 23.2661 12.8921 23.0399C12.652 22.8136 12.532 22.4696 12.532 22.0079V21.2044C12.532 20.7427 12.652 20.3987 12.8921 20.1724C13.1323 19.9462 13.4878 19.833 13.9588 19.833C14.4251 19.833 14.7784 19.9462 15.0185 20.1724C15.2632 20.3987 15.3856 20.7427 15.3856 21.2044V22.0079C15.3856 22.4696 15.2655 22.8136 15.0254 23.0399C14.7853 23.2661 14.4298 23.3793 13.9588 23.3793ZM13.9588 22.8598C14.2543 22.8598 14.4667 22.7859 14.596 22.6382C14.7299 22.4858 14.7969 22.2572 14.7969 21.9525V21.2598C14.7969 20.9551 14.7299 20.7288 14.596 20.5811C14.4667 20.4287 14.2543 20.3525 13.9588 20.3525C13.6633 20.3525 13.4486 20.4287 13.3146 20.5811C13.1854 20.7288 13.1207 20.9551 13.1207 21.2598V21.9525C13.1207 22.2572 13.1854 22.4858 13.3146 22.6382C13.4486 22.7859 13.6633 22.8598 13.9588 22.8598ZM17.3882 23.3793C17.0927 23.3793 16.8664 23.28 16.7094 23.0814C16.5524 22.8829 16.4739 22.5966 16.4739 22.2226V19.9854C16.4739 19.9392 16.497 19.9161 16.5432 19.9161H16.9934C17.0396 19.9161 17.0627 19.9392 17.0627 19.9854V22.1949C17.0627 22.4211 17.1019 22.5897 17.1804 22.7005C17.2635 22.8067 17.3905 22.8598 17.5613 22.8598C17.7322 22.8598 17.903 22.8067 18.0739 22.7005C18.2493 22.5943 18.4664 22.4096 18.7249 22.1464L18.7111 22.6936C18.5633 22.8459 18.4156 22.9729 18.2678 23.0745C18.1201 23.1761 17.9723 23.2523 17.8245 23.3031C17.6814 23.3539 17.5359 23.3793 17.3882 23.3793ZM18.7734 23.2961C18.7226 23.2961 18.6949 23.2731 18.6903 23.2269C18.6765 23.1391 18.6649 23.0491 18.6557 22.9568C18.6464 22.8644 18.6395 22.7697 18.6349 22.6728L18.6003 22.3819V19.9854C18.6003 19.9392 18.6234 19.9161 18.6695 19.9161H19.1197C19.1659 19.9161 19.189 19.9392 19.189 19.9854V22.4511C19.189 22.5758 19.1913 22.7051 19.1959 22.839C19.2052 22.9729 19.219 23.1022 19.2375 23.2269C19.2467 23.2731 19.2213 23.2961 19.1613 23.2961H18.7734ZM22.659 23.2961C22.6128 23.2961 22.5897 23.2731 22.5897 23.2269V21.0174C22.5897 20.7865 22.5412 20.618 22.4443 20.5118C22.3519 20.4056 22.2111 20.3525 22.0218 20.3525C21.8417 20.3525 21.6639 20.4056 21.4885 20.5118C21.313 20.618 21.0937 20.8004 20.8305 21.059L20.8374 20.5257C20.9944 20.3594 21.1421 20.2255 21.2807 20.1239C21.4238 20.0223 21.5646 19.9485 21.7032 19.9023C21.8463 19.8561 21.9964 19.833 22.1534 19.833C22.4858 19.833 22.7398 19.93 22.9153 20.1239C23.0907 20.3179 23.1785 20.6065 23.1785 20.9897V23.2269C23.1785 23.2731 23.1554 23.2961 23.1092 23.2961H22.659ZM20.4357 23.2961C20.3895 23.2961 20.3664 23.2731 20.3664 23.2269V20.7611C20.3664 20.6411 20.3595 20.5072 20.3456 20.3594C20.3364 20.207 20.3272 20.0893 20.3179 20.0062C20.3087 19.9462 20.3318 19.9161 20.3872 19.9161H20.8097C20.8512 19.9161 20.8766 19.9392 20.8859 19.9854C20.8951 20.0223 20.9043 20.0801 20.9136 20.1586C20.9228 20.2371 20.932 20.3202 20.9413 20.4079C20.9505 20.491 20.9551 20.5626 20.9551 20.6226V20.8027V23.2269C20.9551 23.2731 20.932 23.2961 20.8859 23.2961H20.4357ZM25.6056 23.3793C25.3701 23.3793 25.1808 23.34 25.0377 23.2615C24.8991 23.1784 24.7976 23.056 24.7329 22.8944C24.6729 22.7328 24.6429 22.5319 24.6429 22.2918V20.4218H24.1095C24.0634 20.4218 24.0403 20.3987 24.0403 20.3525V19.9854C24.0403 19.9392 24.0634 19.9161 24.1095 19.9161H24.6567L24.7329 19.085C24.7375 19.0388 24.7629 19.0157 24.8091 19.0157H25.1554C25.2016 19.0157 25.2247 19.0388 25.2247 19.085L25.2316 19.9161H26.2636C26.3098 19.9161 26.3329 19.9392 26.3329 19.9854V20.3525C26.3329 20.3987 26.3098 20.4218 26.2636 20.4218H25.2316V22.278C25.2316 22.495 25.2685 22.6474 25.3424 22.7351C25.4209 22.8229 25.5525 22.8667 25.7372 22.8667C25.8296 22.8667 25.9219 22.8575 26.0143 22.839C26.1066 22.8159 26.1874 22.7882 26.2567 22.7559C26.3121 22.7328 26.3398 22.749 26.3398 22.8044V23.1853C26.3398 23.2223 26.3213 23.2477 26.2844 23.2615C26.2013 23.2938 26.1043 23.3215 25.9935 23.3446C25.8827 23.3677 25.7534 23.3793 25.6056 23.3793Z" fill="#858786"/>
<defs>
<clipPath id="clip0_535_1249">
<rect width="13.8525" height="13.8525" fill="white" transform="translate(6.75586 0.134949)"/>
</clipPath>
</defs>
</svg>
