<svg width="29" height="25" viewBox="0 0 29 25" fill="none" xmlns="http://www.w3.org/2000/svg">
<path d="M13.7771 5.27357C13.5231 5.35702 13.3819 5.63263 13.5 5.87245C13.7422 6.36432 14.0992 6.79368 14.5436 7.12266C15.1183 7.54809 15.8108 7.78471 16.5256 7.79988C17.2405 7.81505 17.9424 7.60802 18.5346 7.20734C18.9926 6.89751 19.3674 6.48368 19.6303 6.00253C19.7585 5.76793 19.6291 5.48658 19.3789 5.39243V5.39243C19.1287 5.29829 18.8533 5.42834 18.7125 5.6556C18.5289 5.95204 18.284 6.20813 17.9922 6.40556C17.5659 6.69395 17.0607 6.84296 16.5462 6.83204C16.0317 6.82112 15.5332 6.65081 15.1196 6.34461C14.8364 6.13498 14.6026 5.86873 14.4317 5.56476C14.3007 5.33174 14.031 5.19012 13.7771 5.27357V5.27357Z" fill="#878CAF"/>
<path d="M16.1547 4.01173C16.4718 4.32804 16.9414 5.18492 16.7019 5.42512C16.4623 5.66532 15.6042 5.19788 15.2871 4.88157C14.97 4.56526 14.9071 4.11412 15.1467 3.87392C15.3863 3.63372 15.8376 3.69542 16.1547 4.01173Z" fill="#8F92A9"/>
<path d="M17.4577 4.59224C17.245 4.81634 16.9373 5.41607 17.1071 5.57718C17.2768 5.73829 17.8597 5.39977 18.0724 5.17567C18.2851 4.95157 18.3199 4.63929 18.1502 4.47818C17.9804 4.31707 17.6704 4.36814 17.4577 4.59224Z" fill="#8F92A9"/>
<path d="M4.73714 4.31268C5.45795 4.31268 6.11801 4.45846 6.71734 4.75002C7.32476 5.03349 7.62847 5.36149 7.62847 5.73405C7.62847 5.89603 7.57178 6.03371 7.45839 6.14709C7.35311 6.26048 7.22352 6.31717 7.06964 6.31717C6.91576 6.31717 6.76188 6.25643 6.608 6.13495C6.45412 6.01346 6.30429 5.87983 6.15851 5.73405C6.02083 5.58017 5.7981 5.44248 5.49034 5.321C5.19068 5.19951 4.83433 5.13877 4.42128 5.13877C3.49799 5.13877 2.76909 5.43033 2.23455 6.01346C1.70812 6.58849 1.4449 7.37409 1.4449 8.37026C1.4449 9.35834 1.73647 10.2128 2.31959 10.9336C2.90272 11.6544 3.63973 12.0148 4.53061 12.0148C5.4296 12.0148 6.2476 11.5856 6.9846 10.7271C7.14658 10.5327 7.26402 10.4355 7.33691 10.4355C7.4179 10.4355 7.47864 10.4638 7.51914 10.5205C7.56773 10.5691 7.59203 10.6461 7.59203 10.7514C7.59203 10.8566 7.50699 11.0267 7.33691 11.2616C7.17493 11.4884 6.95221 11.7232 6.66874 11.9662C6.39338 12.2011 6.02892 12.4076 5.57538 12.5858C5.12994 12.7559 4.66425 12.8409 4.17831 12.8409C3.10924 12.8409 2.21836 12.4602 1.50565 11.6989C0.801036 10.9376 0.448731 9.95766 0.448731 8.75901C0.448731 7.55227 0.85368 6.51155 1.66358 5.63686C2.48157 4.75407 3.50609 4.31268 4.73714 4.31268ZM12.9647 11.0308C13.0133 11.2656 13.1186 11.4762 13.2805 11.6625C13.4506 11.8407 13.5357 12.0229 13.5357 12.2092C13.5357 12.3955 13.4709 12.5493 13.3413 12.6708C13.2117 12.7842 13.07 12.8409 12.9161 12.8409C12.7622 12.8409 12.6367 12.8125 12.5395 12.7559C12.4423 12.6992 12.3613 12.6141 12.2965 12.5007C12.2074 12.3307 12.1386 12.1241 12.09 11.8812L11.5555 9.34214C11.4745 8.96959 11.3449 8.67397 11.1667 8.4553C10.9966 8.23663 10.7294 8.12729 10.3649 8.12729C10.0086 8.12729 9.72914 8.25283 9.52667 8.5039C9.33229 8.74686 9.23106 9.01413 9.22296 9.30569C9.28775 11.2252 9.32014 12.2416 9.32014 12.355C9.32014 12.4602 9.27155 12.5696 9.17436 12.683C9.07718 12.7883 8.95164 12.8409 8.79776 12.8409C8.64388 12.8409 8.51025 12.7883 8.39686 12.683C8.29158 12.5696 8.23893 12.3874 8.23893 12.1363C8.23893 11.8852 8.25918 11.2899 8.29967 10.3505C8.34017 9.40288 8.36042 8.66992 8.36042 8.15159C8.36042 7.63326 8.34017 6.93674 8.29967 6.06205C8.25918 5.18737 8.23893 4.62449 8.23893 4.37342C8.23893 4.12235 8.29158 3.94012 8.39686 3.82674C8.51025 3.71335 8.64388 3.65666 8.79776 3.65666C8.95164 3.65666 9.07718 3.71335 9.17436 3.82674C9.27155 3.93202 9.32014 4.1102 9.32014 4.36127C9.32014 4.60424 9.2999 5.17927 9.2594 6.08635C9.22701 6.98534 9.21081 7.72234 9.21081 8.29737C9.68865 7.58466 10.2394 7.22831 10.863 7.22831C11.7134 7.22831 12.2601 7.79928 12.503 8.94124L12.9647 11.0308ZM14.9965 8.72257C14.6402 9.07892 14.462 9.51627 14.462 10.0346C14.462 10.5529 14.6402 10.9943 14.9965 11.3588C15.361 11.7151 15.7983 11.8933 16.3085 11.8933C16.8269 11.8933 17.2602 11.7151 17.6084 11.3588C17.9567 10.9943 18.1308 10.5529 18.1308 10.0346C18.1308 9.51627 17.9567 9.07892 17.6084 8.72257C17.2602 8.36621 16.8269 8.18804 16.3085 8.18804C15.7983 8.18804 15.361 8.36621 14.9965 8.72257ZM15.4825 12.8409C14.9641 12.8409 14.5308 12.6384 14.1826 12.2335C13.8343 11.8285 13.6602 11.3223 13.6602 10.7149C13.6602 10.0994 13.8505 9.50817 14.2312 8.94124C14.6118 8.36621 15.0573 7.93697 15.5675 7.6535C16.0777 7.37004 16.592 7.22831 17.1103 7.22831C17.6287 7.22831 18.062 7.43078 18.4102 7.83573C18.7585 8.24068 18.9326 8.75091 18.9326 9.36644C18.9326 9.97386 18.7423 10.5651 18.3616 11.1401C17.981 11.707 17.5355 12.1322 17.0253 12.4157C16.5151 12.6992 16.0008 12.8409 15.4825 12.8409ZM21.0631 12.8409C20.9174 12.8409 20.7878 12.7802 20.6744 12.6587C20.5691 12.5291 20.4881 12.3752 20.4314 12.197C19.9293 10.561 19.4879 9.33809 19.1072 8.52819C18.9534 8.17994 18.8764 7.92482 18.8764 7.76284C18.8764 7.60086 18.921 7.47128 19.0101 7.37409C19.0991 7.2769 19.2125 7.22831 19.3502 7.22831C19.5608 7.22831 19.7309 7.38624 19.8605 7.7021C19.9981 8.01796 20.2452 8.66588 20.6015 9.64585C20.966 10.6177 21.1846 11.2211 21.2575 11.456C21.3304 11.6827 21.379 11.8285 21.4033 11.8933L21.4398 12.0148C21.6665 11.8609 21.9216 11.541 22.2051 11.0551C22.4967 10.5691 22.6951 10.0872 22.8004 9.60941C22.6465 9.19636 22.4967 8.82785 22.3509 8.5039C22.2051 8.17184 22.1322 7.92482 22.1322 7.76284C22.1322 7.60086 22.1768 7.47128 22.2658 7.37409C22.3549 7.2769 22.4683 7.22831 22.606 7.22831C22.8166 7.22831 22.9867 7.38624 23.1162 7.7021C23.2539 8.01796 23.5009 8.66588 23.8573 9.64585C24.2217 10.6177 24.4404 11.2211 24.5133 11.456C24.5862 11.6827 24.6348 11.8285 24.6591 11.8933L24.6955 12.0148C24.9871 11.8204 25.2989 11.3993 25.631 10.7514C25.9711 10.0953 26.1412 9.50412 26.1412 8.97769C26.1412 8.79951 26.0926 8.58893 25.9954 8.34597C25.8982 8.0949 25.8496 7.90052 25.8496 7.76284C25.8496 7.62516 25.9023 7.50367 26.0076 7.39839C26.121 7.285 26.2708 7.22831 26.4571 7.22831C26.6433 7.22831 26.7932 7.3174 26.9066 7.49557C27.028 7.67375 27.0888 7.97341 27.0888 8.39456C27.0888 8.81571 26.9471 9.38668 26.6636 10.1075C26.3882 10.8283 26.0278 11.4641 25.5824 12.0148C25.1369 12.5655 24.7158 12.8409 24.3189 12.8409C24.0436 12.8409 23.833 12.6263 23.6872 12.197C23.6548 12.1079 23.5819 11.8852 23.4685 11.5289L23.1648 10.642C22.8652 11.2656 22.525 11.788 22.1444 12.2092C21.7637 12.6303 21.4033 12.8409 21.0631 12.8409Z" fill="#3F414E"/>
<path d="M4.78573 19.3664C4.84242 19.5122 4.95986 19.7106 5.13804 19.9616C5.32431 20.2046 5.41745 20.403 5.41745 20.5569C5.41745 20.7108 5.37696 20.8363 5.29597 20.9335C5.21498 21.0226 5.10564 21.0672 4.96796 21.0672C4.6359 21.0672 4.34029 20.7229 4.08112 20.0345L3.98393 19.7673C3.57089 20.6339 2.95131 21.0672 2.12522 21.0672C1.71217 21.0672 1.36796 20.9376 1.0926 20.6784C0.825333 20.4111 0.6917 20.0791 0.6917 19.6822C0.6917 19.0667 0.902274 18.5362 1.32342 18.0908C1.74457 17.6453 2.2953 17.4064 2.97561 17.374C2.81363 17.0906 2.6314 16.88 2.42893 16.7423C2.23455 16.5965 2.05638 16.5115 1.8944 16.4872C1.73242 16.4629 1.57854 16.4507 1.43276 16.4507C1.29507 16.4426 1.18574 16.4102 1.10475 16.3536C1.02376 16.2969 0.983263 16.1875 0.983263 16.0255C0.983263 15.8555 1.04806 15.7178 1.17764 15.6125C1.31532 15.5072 1.4773 15.4546 1.66358 15.4546C2.19001 15.4546 2.70834 15.7178 3.21858 16.2442C3.72882 16.7706 4.17426 17.5967 4.55491 18.7225L4.78573 19.3664ZM2.6719 18.0179C2.38034 18.0179 2.11712 18.1151 1.88225 18.3095C1.65548 18.5038 1.54209 18.7549 1.54209 19.0627C1.54209 19.3704 1.64333 19.6296 1.8458 19.8402C2.05638 20.0426 2.30745 20.1439 2.59901 20.1439C2.89057 20.1439 3.14164 20.0426 3.35221 19.8402C3.56279 19.6296 3.66807 19.3826 3.66807 19.0991C3.66807 18.8966 3.63163 18.7104 3.55874 18.5403C3.48585 18.3621 3.4413 18.2528 3.4251 18.2123C3.21453 18.0827 2.96346 18.0179 2.6719 18.0179ZM5.84246 23.0959C5.92345 22.7801 6.00039 22.3144 6.07328 21.6989C6.15427 21.0834 6.19476 20.3787 6.19476 19.585C6.19476 18.7913 6.15832 17.702 6.08543 16.3171H5.70882C5.39296 16.3171 5.23503 16.1794 5.23503 15.9041C5.23503 15.6287 5.39296 15.491 5.70882 15.491C5.8708 15.491 5.99229 15.4951 6.07328 15.5032C6.10567 14.4908 6.48633 13.6363 7.21523 12.9398C7.95224 12.2352 8.68925 11.8829 9.42625 11.8829C9.71782 11.8829 9.95674 11.9356 10.143 12.0408C10.3374 12.1461 10.4346 12.3 10.4346 12.5025C10.4346 12.6969 10.3779 12.8507 10.2645 12.9641C10.1592 13.0694 10.0539 13.1221 9.94864 13.1221C9.84335 13.1221 9.66112 13.0775 9.40196 12.9884C9.14279 12.8912 8.88767 12.8426 8.6366 12.8426C8.13447 12.8426 7.70522 13.0654 7.34887 13.5108C6.99251 13.9482 6.81433 14.4746 6.81433 15.0901V15.5518H7.20309L8.87957 15.4546C9.19543 15.4546 9.35336 15.6044 9.35336 15.9041C9.35336 16.2037 9.19543 16.3536 8.87957 16.3536L7.20309 16.2564C7.02491 16.2564 6.89532 16.2604 6.81433 16.2685C6.83053 17.1594 6.86698 18.1596 6.92367 19.2692C6.98846 20.3787 7.02086 21.4721 7.02086 22.5493C7.02086 23.8613 6.76574 24.5173 6.25551 24.5173C5.89915 24.5173 5.72097 24.2865 5.72097 23.8249C5.72097 23.6629 5.76147 23.4199 5.84246 23.0959ZM10.7188 18.1394L10.816 20.3382C10.816 20.5569 10.7593 20.7351 10.6459 20.8728C10.5407 21.0024 10.4111 21.0672 10.2572 21.0672C10.1033 21.0672 9.97777 21.0064 9.88059 20.8849C9.7834 20.7553 9.73481 20.5812 9.73481 20.3625C9.73481 20.1439 9.75505 19.8321 9.79555 19.4271C9.87654 18.6172 9.91703 17.9329 9.91703 17.374C9.91703 17.1311 9.84009 16.9002 9.68621 16.6816C9.54043 16.4548 9.46754 16.2523 9.46754 16.0741C9.46754 15.896 9.52828 15.7502 9.64977 15.6368C9.77125 15.5153 9.90893 15.4546 10.0628 15.4546C10.4678 15.4546 10.6702 15.7745 10.6702 16.4143V16.8881C10.9132 16.4507 11.2048 16.1025 11.5449 15.8433C11.8851 15.5841 12.1969 15.4546 12.4804 15.4546C12.7638 15.4546 12.9784 15.5275 13.1242 15.6732C13.2781 15.8109 13.355 15.9972 13.355 16.2321C13.355 16.4669 13.2984 16.6654 13.185 16.8273C13.0716 16.9812 12.9501 17.0582 12.8205 17.0582C12.6909 17.0582 12.5897 17.0258 12.5168 16.961C12.452 16.8881 12.4034 16.8152 12.371 16.7423C12.3386 16.6613 12.2779 16.5884 12.1888 16.5236C12.0997 16.4507 11.9863 16.4143 11.8486 16.4143C11.6138 16.4143 11.3789 16.5682 11.144 16.8759C10.9092 17.1837 10.7674 17.6048 10.7188 18.1394ZM13.9096 20.1074C13.9096 19.087 13.8894 18.192 13.8489 17.4226C13.8084 16.6532 13.7881 16.1997 13.7881 16.062C13.7881 15.9243 13.8408 15.7907 13.946 15.6611C14.0594 15.5234 14.1931 15.4546 14.3469 15.4546C14.5008 15.4546 14.6264 15.5194 14.7236 15.6489C14.8207 15.7704 14.8693 15.9527 14.8693 16.1956C14.8693 16.4305 14.841 16.8314 14.7843 17.3983C14.7276 17.9571 14.6993 18.5403 14.6993 19.1477C14.6993 19.3907 14.7478 19.6255 14.845 19.8523C14.9503 20.071 15.003 20.2735 15.003 20.4597C15.003 20.6379 14.9503 20.7837 14.845 20.8971C14.7478 21.0105 14.6102 21.0672 14.432 21.0672C14.2619 21.0672 14.1323 20.97 14.0432 20.7756C13.9541 20.5812 13.9096 20.3585 13.9096 20.1074ZM14.2984 14.0818C14.1202 14.0818 13.9784 14.0332 13.8732 13.936C13.7679 13.8388 13.7152 13.6971 13.7152 13.5108C13.7152 13.3245 13.78 13.1666 13.9096 13.037C14.0392 12.8993 14.1931 12.8305 14.3712 12.8305C14.5494 12.8305 14.6912 12.8831 14.7964 12.9884C14.9098 13.0856 14.9665 13.2273 14.9665 13.4136C14.9665 13.5999 14.8977 13.7578 14.76 13.8874C14.6304 14.017 14.4765 14.0818 14.2984 14.0818ZM18.2249 16.4021C17.6903 16.4021 17.253 16.5884 16.9128 16.961C16.5808 17.3254 16.4148 17.7628 16.4148 18.273C16.4148 18.7832 16.5889 19.2165 16.9371 19.5729C17.2935 19.9292 17.7268 20.1074 18.237 20.1074C18.6906 20.1074 19.0996 19.9414 19.464 19.6093C19.5936 19.496 19.6908 19.4393 19.7556 19.4393C19.8204 19.4393 19.8771 19.4636 19.9257 19.5122C19.9742 19.5607 19.9985 19.6134 19.9985 19.6701C19.9985 19.905 19.7677 20.1965 19.3061 20.5448C18.8525 20.893 18.3342 21.0672 17.7511 21.0672C17.1761 21.0672 16.6739 20.8323 16.2447 20.3625C15.8235 19.8928 15.613 19.3097 15.613 18.6132C15.613 17.7223 15.9491 16.9731 16.6213 16.3657C17.2935 15.7583 18.0345 15.4546 18.8444 15.4546C19.1846 15.4546 19.46 15.5153 19.6705 15.6368C19.8892 15.7502 19.9985 15.9 19.9985 16.0863C19.9985 16.2645 19.9419 16.4102 19.8285 16.5236C19.7232 16.637 19.6179 16.6937 19.5126 16.6937C19.4073 16.6937 19.2251 16.6451 18.9659 16.5479C18.7149 16.4507 18.4678 16.4021 18.2249 16.4021ZM24.1592 19.3664C24.2159 19.5122 24.3333 19.7106 24.5115 19.9616C24.6978 20.2046 24.7909 20.403 24.7909 20.5569C24.7909 20.7108 24.7504 20.8363 24.6694 20.9335C24.5884 21.0226 24.4791 21.0672 24.3414 21.0672C24.0094 21.0672 23.7138 20.7229 23.4546 20.0345L23.3574 19.7673C22.9444 20.6339 22.3248 21.0672 21.4987 21.0672C21.0856 21.0672 20.7414 20.9376 20.4661 20.6784C20.1988 20.4111 20.0652 20.0791 20.0652 19.6822C20.0652 19.0667 20.2757 18.5362 20.6969 18.0908C21.118 17.6453 21.6688 17.4064 22.3491 17.374C22.1871 17.0906 22.0049 16.88 21.8024 16.7423C21.608 16.5965 21.4298 16.5115 21.2679 16.4872C21.1059 16.4629 20.952 16.4507 20.8062 16.4507C20.6685 16.4426 20.5592 16.4102 20.4782 16.3536C20.3972 16.2969 20.3567 16.1875 20.3567 16.0255C20.3567 15.8555 20.4215 15.7178 20.5511 15.6125C20.6888 15.5072 20.8508 15.4546 21.037 15.4546C21.5635 15.4546 22.0818 15.7178 22.5921 16.2442C23.1023 16.7706 23.5477 17.5967 23.9284 18.7225L24.1592 19.3664ZM22.0454 18.0179C21.7538 18.0179 21.4906 18.1151 21.2557 18.3095C21.029 18.5038 20.9156 18.7549 20.9156 19.0627C20.9156 19.3704 21.0168 19.6296 21.2193 19.8402C21.4298 20.0426 21.6809 20.1439 21.9725 20.1439C22.264 20.1439 22.5151 20.0426 22.7257 19.8402C22.9363 19.6296 23.0415 19.3826 23.0415 19.0991C23.0415 18.8966 23.0051 18.7104 22.9322 18.5403C22.8593 18.3621 22.8148 18.2528 22.7986 18.2123C22.588 18.0827 22.3369 18.0179 22.0454 18.0179Z" fill="#3F414E"/>
</svg>
