<svg width="224" height="27" viewBox="0 0 224 27" fill="none" xmlns="http://www.w3.org/2000/svg">
<path d="M20.8969 11.1566C19.5737 11.1566 18.631 12.0613 18.631 13.2999V13.3084C18.631 14.4667 19.4511 15.3206 20.6221 15.3206C21.4591 15.3206 21.9918 14.8937 22.2159 14.4117H22.3004C22.3004 14.4582 22.2962 14.5048 22.2962 14.5513C22.2497 15.718 21.8396 16.665 20.8715 16.665C20.3346 16.665 19.9584 16.386 19.7978 15.959L19.7851 15.9167H18.7113L18.7198 15.9632C18.9142 16.8975 19.7513 17.5612 20.8715 17.5612C22.4061 17.5612 23.3319 16.3437 23.3319 14.2892V14.2807C23.3319 12.0824 22.1989 11.1566 20.8969 11.1566ZM20.8927 14.4836C20.1994 14.4836 19.6963 13.9763 19.6963 13.2703V13.2619C19.6963 12.5813 20.2332 12.0444 20.9054 12.0444C21.5817 12.0444 22.1102 12.5897 22.1102 13.2872V13.2957C22.1102 13.9848 21.5817 14.4836 20.8927 14.4836ZM25.1559 13.4563C25.5448 13.4563 25.8281 13.1604 25.8281 12.7884C25.8281 12.4122 25.5448 12.1205 25.1559 12.1205C24.7712 12.1205 24.4838 12.4122 24.4838 12.7884C24.4838 13.1604 24.7712 13.4563 25.1559 13.4563ZM25.1559 16.5931C25.5448 16.5931 25.8281 16.3014 25.8281 15.9252C25.8281 15.5489 25.5448 15.2572 25.1559 15.2572C24.7712 15.2572 24.4838 15.5489 24.4838 15.9252C24.4838 16.3014 24.7712 16.5931 25.1559 16.5931ZM29.9391 17.409H30.9833V16.238H31.8034V15.3376H30.9833V11.3088H29.4403C28.6117 12.5686 27.7451 13.9721 26.9546 15.346V16.238H29.9391V17.409ZM27.9692 15.3629V15.2995C28.561 14.2638 29.267 13.1351 29.8926 12.1797H29.956V15.3629H27.9692ZM34.2362 17.409H35.3269V11.3088H34.2404L32.6467 12.4291V13.4563L34.1643 12.3826H34.2362V17.409Z" fill="#111111"/>
<path fill-rule="evenodd" clip-rule="evenodd" d="M203.382 11.233H211.937C212.657 11.233 212.918 11.308 213.182 11.4489C213.445 11.5897 213.652 11.7964 213.793 12.0598C213.934 12.3232 214.009 12.5844 214.009 13.3048V15.7989C214.009 16.5193 213.934 16.7805 213.793 17.0439C213.652 17.3073 213.445 17.514 213.182 17.6548C212.918 17.7957 212.657 17.8707 211.937 17.8707H203.382C202.662 17.8707 202.401 17.7957 202.137 17.6548C201.874 17.514 201.667 17.3073 201.526 17.0439C201.386 16.7805 201.311 16.5193 201.311 15.7989V13.3048C201.311 12.5844 201.386 12.3232 201.526 12.0598C201.667 11.7964 201.874 11.5897 202.137 11.4489C202.401 11.308 202.662 11.233 203.382 11.233ZM203.382 11.8102C202.813 11.8102 202.614 11.8486 202.41 11.9579C202.247 12.0449 202.122 12.1692 202.035 12.332C201.926 12.5363 201.888 12.7352 201.888 13.3048V15.7989C201.888 16.3686 201.926 16.5675 202.035 16.7717C202.122 16.9345 202.247 17.0588 202.41 17.1459C202.614 17.2551 202.813 17.2935 203.382 17.2935H211.937C212.507 17.2935 212.705 17.2551 212.91 17.1459C213.072 17.0588 213.197 16.9345 213.284 16.7717C213.393 16.5675 213.431 16.3686 213.431 15.7989V13.3048C213.431 12.7352 213.393 12.5363 213.284 12.332C213.197 12.1692 213.072 12.0449 212.91 11.9579C212.705 11.8486 212.507 11.8102 211.937 11.8102H203.382ZM215.452 14.5172C215.452 15.2309 214.586 15.6716 214.586 15.6716V13.3628C214.586 13.3628 215.452 13.8035 215.452 14.5172Z" fill="#111111" fill-opacity="0.36"/>
<rect x="202.465" y="12.3393" width="10.3893" height="4.42509" rx="0.923497" fill="#111111"/>
<path fill-rule="evenodd" clip-rule="evenodd" d="M184.931 12.0445C184.917 12.1114 184.917 12.1919 184.917 12.3528V16.7971C184.917 16.958 184.917 17.0385 184.931 17.1054C184.985 17.3801 185.2 17.5949 185.475 17.6496C185.542 17.6629 185.622 17.6629 185.783 17.6629C185.944 17.6629 186.025 17.6629 186.092 17.6496C186.366 17.5949 186.581 17.3801 186.636 17.1054C186.649 17.0385 186.649 16.958 186.649 16.7971V12.3528C186.649 12.1919 186.649 12.1114 186.636 12.0445C186.581 11.7697 186.366 11.555 186.092 11.5003C186.025 11.487 185.944 11.487 185.783 11.487C185.622 11.487 185.542 11.487 185.475 11.5003C185.2 11.555 184.985 11.7697 184.931 12.0445ZM182.205 13.738C182.205 13.5771 182.205 13.4967 182.218 13.4298C182.273 13.155 182.488 12.9402 182.763 12.8856C182.83 12.8723 182.91 12.8723 183.071 12.8723C183.232 12.8723 183.312 12.8723 183.379 12.8856C183.654 12.9402 183.869 13.155 183.923 13.4298C183.937 13.4967 183.937 13.5771 183.937 13.738V16.7971C183.937 16.958 183.937 17.0385 183.923 17.1054C183.869 17.3802 183.654 17.5949 183.379 17.6496C183.312 17.6629 183.232 17.6629 183.071 17.6629C182.91 17.6629 182.83 17.6629 182.763 17.6496C182.488 17.5949 182.273 17.3802 182.218 17.1054C182.205 17.0385 182.205 16.958 182.205 16.7971V13.738ZM179.563 14.7573C179.549 14.8242 179.549 14.9046 179.549 15.0655V16.7971C179.549 16.958 179.549 17.0385 179.563 17.1054C179.617 17.3801 179.832 17.5949 180.107 17.6496C180.174 17.6629 180.254 17.6629 180.415 17.6629C180.576 17.6629 180.656 17.6629 180.723 17.6496C180.998 17.5949 181.213 17.3801 181.267 17.1054C181.281 17.0385 181.281 16.958 181.281 16.7971V15.0655C181.281 14.9046 181.281 14.8242 181.267 14.7573C181.213 14.4825 180.998 14.2677 180.723 14.2131C180.656 14.1998 180.576 14.1998 180.415 14.1998C180.254 14.1998 180.174 14.1998 180.107 14.2131C179.832 14.2677 179.617 14.4825 179.563 14.7573ZM176.793 15.9116C176.779 15.9785 176.779 16.059 176.779 16.2199V16.7971C176.779 16.958 176.779 17.0385 176.793 17.1054C176.847 17.3801 177.062 17.5949 177.337 17.6496C177.404 17.6629 177.484 17.6629 177.645 17.6629C177.806 17.6629 177.887 17.6629 177.953 17.6496C178.228 17.5949 178.443 17.3801 178.498 17.1054C178.511 17.0385 178.511 16.958 178.511 16.7971V16.2199C178.511 16.059 178.511 15.9785 178.498 15.9116C178.443 15.6369 178.228 15.4221 177.953 15.3674C177.887 15.3541 177.806 15.3541 177.645 15.3541C177.484 15.3541 177.404 15.3541 177.337 15.3674C177.062 15.4221 176.847 15.6369 176.793 15.9116Z" fill="#111111"/>
<path fill-rule="evenodd" clip-rule="evenodd" d="M193.98 12.6969C195.27 12.697 196.51 13.1925 197.445 14.0812C197.515 14.1498 197.627 14.1489 197.697 14.0792L198.37 13.4002C198.405 13.3649 198.424 13.317 198.424 13.2672C198.424 13.2174 198.404 13.1697 198.368 13.1348C195.915 10.7838 192.045 10.7838 189.591 13.1348C189.556 13.1697 189.536 13.2173 189.535 13.2671C189.535 13.317 189.554 13.3648 189.59 13.4002L190.263 14.0792C190.332 14.149 190.444 14.1499 190.515 14.0812C191.45 13.1925 192.69 12.6969 193.98 12.6969V12.6969ZM193.98 14.9061C194.688 14.906 195.372 15.1694 195.897 15.645C195.968 15.7125 196.08 15.7111 196.149 15.6417L196.821 14.9627C196.857 14.9271 196.876 14.8788 196.876 14.8286C196.875 14.7784 196.855 14.7305 196.819 14.6956C195.219 13.2078 192.742 13.2078 191.143 14.6956C191.106 14.7305 191.086 14.7784 191.085 14.8286C191.085 14.8789 191.105 14.9272 191.14 14.9627L191.812 15.6417C191.881 15.7111 191.993 15.7125 192.064 15.645C192.589 15.1697 193.272 14.9064 193.98 14.9061V14.9061ZM195.271 16.5266C195.307 16.4913 195.327 16.4428 195.326 16.3924C195.325 16.3421 195.303 16.2944 195.266 16.2606C194.523 15.6327 193.436 15.6327 192.693 16.2606C192.656 16.2944 192.634 16.342 192.633 16.3924C192.632 16.4427 192.652 16.4913 192.688 16.5266L193.85 17.6997C193.885 17.7342 193.931 17.7536 193.979 17.7536C194.028 17.7536 194.074 17.7342 194.108 17.6997L195.271 16.5266Z" fill="#111111"/>
</svg>
