<svg width="50" height="16" viewBox="0 0 50 16" fill="none" xmlns="http://www.w3.org/2000/svg">
<rect x="0.899545" y="0.33967" width="48.4901" height="15.3289" rx="7.66445" stroke="#DADADA" stroke-width="0.288593"/>
<g clip-path="url(#clip0_535_1232)">
<path d="M9.41348 4.12561C8.38478 4.12561 7.39823 4.53426 6.67083 5.26165C5.94344 5.98905 5.53479 6.97561 5.53479 8.0043C5.53482 8.51365 5.63517 9.01802 5.83011 9.48859C6.02506 9.95916 6.31079 10.3867 6.67097 10.7469C7.03116 11.107 7.45876 11.3927 7.92935 11.5876C8.39995 11.7825 8.90432 11.8828 9.41368 11.8828C9.92303 11.8828 10.4274 11.7824 10.898 11.5875C11.3685 11.3925 11.7961 11.1068 12.1563 10.7466C12.5164 10.3864 12.8021 9.95881 12.997 9.48822C13.1919 9.01762 13.2922 8.51325 13.2922 8.00389C13.2922 5.86213 11.5552 4.12561 9.41348 4.12561ZM9.41348 11.0745C9.01024 11.0745 8.61094 10.9951 8.2384 10.8408C7.86585 10.6865 7.52735 10.4603 7.24222 10.1752C6.95708 9.89002 6.7309 9.55152 6.57659 9.17897C6.42227 8.80643 6.34285 8.40713 6.34285 8.00389C6.34285 7.60065 6.42227 7.20136 6.57659 6.82881C6.7309 6.45627 6.95708 6.11777 7.24222 5.83263C7.52735 5.5475 7.86585 5.32132 8.2384 5.167C8.61094 5.01269 9.01024 4.93327 9.41348 4.93327V8.0043L12.1576 6.63221C12.3722 7.05778 12.484 7.52771 12.4841 8.0043C12.484 8.81861 12.1604 9.59953 11.5846 10.1753C11.0088 10.7511 10.2278 11.0745 9.41348 11.0745Z" fill="#D87023"/>
</g>
<path d="M18.9251 9.58727C18.4403 9.58727 18.0616 9.44874 17.7892 9.17169C17.5168 8.89464 17.3806 8.50908 17.3806 8.01501V6.45661C17.3806 5.96254 17.5168 5.57698 17.7892 5.29993C18.0616 5.02288 18.4403 4.88436 18.9251 4.88436C19.4099 4.88436 19.7886 5.02288 20.061 5.29993C20.3334 5.57698 20.4697 5.96254 20.4697 6.45661V8.01501C20.4697 8.50908 20.3334 8.89464 20.061 9.17169C19.7886 9.44874 19.4099 9.58727 18.9251 9.58727ZM18.9251 9.0678C19.2252 9.0678 19.4584 8.98007 19.6247 8.8046C19.7955 8.62452 19.8809 8.37979 19.8809 8.07042V6.4012C19.8809 6.08721 19.7955 5.84249 19.6247 5.66702C19.4584 5.49156 19.2252 5.40382 18.9251 5.40382C18.625 5.40382 18.3895 5.49156 18.2186 5.66702C18.0524 5.84249 17.9693 6.08721 17.9693 6.4012V8.07042C17.9693 8.37979 18.0524 8.62452 18.2186 8.8046C18.3895 8.98007 18.625 9.0678 18.9251 9.0678ZM21.3637 9.50415C21.299 9.50415 21.2783 9.47875 21.3013 9.42796L23.1229 5.02288C23.1368 4.98594 23.1645 4.96747 23.2061 4.96747H23.6355C23.7001 4.96747 23.7209 4.99287 23.6978 5.04366L21.8762 9.44874C21.8624 9.48568 21.8347 9.50415 21.7931 9.50415H21.3637ZM24.6195 9.50415C24.5733 9.50415 24.5502 9.48106 24.5502 9.43489V8.95698C24.5502 8.73534 24.5895 8.5391 24.668 8.36825C24.7511 8.19278 24.8596 8.0381 24.9935 7.90419C25.1274 7.77029 25.2729 7.64792 25.4299 7.5371C25.5915 7.42167 25.7508 7.31315 25.9078 7.21157C26.0694 7.10537 26.2171 7.00147 26.3511 6.89989C26.485 6.79369 26.5912 6.68056 26.6697 6.5605C26.7528 6.43583 26.7943 6.29731 26.7943 6.14493V5.99948C26.7943 5.80093 26.7228 5.65317 26.5796 5.5562C26.4411 5.45462 26.2356 5.40382 25.9632 5.40382C25.6908 5.40382 25.4876 5.46385 25.3537 5.58391C25.2244 5.70396 25.1597 5.8725 25.1597 6.08952C25.1597 6.1357 25.139 6.15878 25.0974 6.15878H24.6472C24.601 6.15878 24.5779 6.1357 24.5779 6.08952C24.5779 5.83094 24.631 5.61161 24.7372 5.43153C24.8434 5.25145 25.0027 5.11523 25.2152 5.02288C25.4322 4.93053 25.7023 4.88436 26.0255 4.88436C26.4827 4.88436 26.822 4.98132 27.0437 5.17526C27.2699 5.36919 27.3831 5.65317 27.3831 6.02718C27.3831 6.27191 27.3415 6.48201 27.2584 6.65747C27.1799 6.82832 27.0737 6.9807 26.9398 7.1146C26.8105 7.24389 26.665 7.36164 26.5034 7.46784C26.3464 7.56942 26.1894 7.6687 26.0324 7.76567C25.8755 7.86263 25.73 7.96653 25.5961 8.07735C25.4668 8.18817 25.3606 8.31515 25.2775 8.45829C25.199 8.60143 25.1597 8.77228 25.1597 8.97083H27.293C27.3392 8.97083 27.3623 8.99392 27.3623 9.04009V9.43489C27.3623 9.48106 27.3392 9.50415 27.293 9.50415H24.6195ZM30.1192 9.58727C29.9437 9.58727 29.7613 9.56418 29.572 9.518C29.3827 9.47183 29.2303 9.40949 29.1149 9.33099L29.0941 8.83231C29.228 8.90619 29.3758 8.9639 29.5374 9.00546C29.699 9.04702 29.8514 9.0678 29.9945 9.0678C30.2623 9.0678 30.4586 8.9893 30.5832 8.83231C30.7079 8.67531 30.7703 8.43982 30.7703 8.12583V7.36395C30.7703 7.0869 30.7218 6.88373 30.6248 6.75444C30.5278 6.62515 30.3847 6.5605 30.1954 6.5605C30.0338 6.5605 29.8698 6.60899 29.7036 6.70596C29.542 6.7983 29.3273 6.96453 29.0595 7.20464V6.65055C29.2165 6.5074 29.3619 6.39197 29.4958 6.30423C29.6344 6.21188 29.7683 6.14493 29.8976 6.10337C30.0315 6.06182 30.1723 6.04104 30.3201 6.04104C30.6617 6.04104 30.9203 6.14724 31.0958 6.35964C31.2713 6.57205 31.359 6.89527 31.359 7.32932V8.19509C31.359 8.64299 31.2528 8.98699 31.0404 9.2271C30.828 9.46721 30.5209 9.58727 30.1192 9.58727ZM28.6716 10.7855C28.6254 10.7855 28.6023 10.7624 28.6023 10.7162V6.90682C28.6023 6.80061 28.5977 6.68287 28.5885 6.55358C28.5793 6.42429 28.5677 6.30885 28.5539 6.20727C28.5492 6.15186 28.5723 6.12415 28.6231 6.12415H29.0456C29.0918 6.12415 29.1172 6.14724 29.1218 6.19341C29.131 6.22574 29.1403 6.27191 29.1495 6.33194C29.1588 6.39197 29.1657 6.45199 29.1703 6.51202C29.1749 6.56743 29.1749 6.60668 29.1703 6.62977L29.1911 6.97608V10.7162C29.1911 10.7624 29.168 10.7855 29.1218 10.7855H28.6716ZM32.6688 9.50415C32.6226 9.50415 32.5995 9.48106 32.5995 9.43489V6.19341C32.5995 6.14724 32.6226 6.12415 32.6688 6.12415H33.119C33.1652 6.12415 33.1883 6.14724 33.1883 6.19341V9.43489C33.1883 9.48106 33.1652 9.50415 33.119 9.50415H32.6688ZM32.8974 5.5562C32.7635 5.5562 32.6665 5.52157 32.6065 5.45231C32.5464 5.37843 32.5164 5.28608 32.5164 5.17526V5.106C32.5164 4.99518 32.5464 4.90514 32.6065 4.83587C32.6665 4.76199 32.7635 4.72505 32.8974 4.72505C33.0313 4.72505 33.1282 4.76199 33.1883 4.83587C33.2483 4.90514 33.2783 4.99518 33.2783 5.106V5.17526C33.2783 5.28608 33.2483 5.37843 33.1883 5.45231C33.1282 5.52157 33.0313 5.5562 32.8974 5.5562ZM35.8296 9.58727C35.3678 9.58727 35.0169 9.47183 34.7768 9.24095C34.5367 9.01008 34.4166 8.67762 34.4166 8.24358V7.38473C34.4166 6.95068 34.539 6.61822 34.7837 6.38735C35.0285 6.15647 35.3817 6.04104 35.8434 6.04104C36.1159 6.04104 36.3491 6.08259 36.543 6.16571C36.7369 6.24882 36.887 6.36426 36.9932 6.51202C37.0994 6.65516 37.1525 6.82601 37.1525 7.02456C37.1525 7.13076 37.1294 7.18386 37.0832 7.18386H36.6261C36.5845 7.18386 36.5638 7.14692 36.5638 7.07305C36.5638 6.91143 36.4991 6.78676 36.3698 6.69903C36.2405 6.60668 36.0651 6.5605 35.8434 6.5605C35.5618 6.5605 35.3517 6.63208 35.2132 6.77522C35.0746 6.91836 35.0054 7.14 35.0054 7.44014V8.18817C35.0054 8.48369 35.0746 8.70533 35.2132 8.85309C35.3517 8.99623 35.5595 9.0678 35.8365 9.0678C36.0582 9.0678 36.2336 9.01931 36.3629 8.92235C36.4922 8.82538 36.5568 8.70533 36.5568 8.56218C36.5568 8.4883 36.5776 8.45136 36.6192 8.45136H37.0763C37.1225 8.45136 37.1456 8.47214 37.1456 8.5137C37.1456 8.84154 37.0324 9.10243 36.8062 9.29636C36.5799 9.4903 36.2544 9.58727 35.8296 9.58727ZM38.4311 9.50415C38.3849 9.50415 38.3618 9.48106 38.3618 9.43489V4.8428C38.3618 4.79663 38.3849 4.77354 38.4311 4.77354H38.8813C38.9275 4.77354 38.9506 4.79663 38.9506 4.8428V6.63669C38.9506 6.79369 38.9506 6.95299 38.9506 7.1146C38.9506 7.2716 38.9483 7.4309 38.9436 7.59251H38.9506C39.0337 7.50016 39.1168 7.40781 39.1999 7.31546C39.2876 7.22311 39.3754 7.13076 39.4631 7.03841L40.2804 6.15878C40.2989 6.1357 40.3266 6.12415 40.3635 6.12415H40.973C41.0053 6.12415 41.0238 6.13339 41.0284 6.15186C41.0377 6.16571 41.0307 6.18418 41.0076 6.20727L39.8579 7.38473L41.1115 9.42104C41.1254 9.44412 41.1277 9.4649 41.1185 9.48337C41.1092 9.49722 41.0908 9.50415 41.0631 9.50415H40.5297C40.4974 9.50415 40.4697 9.48799 40.4466 9.45567L39.4354 7.82108L38.9506 8.31284V9.43489C38.9506 9.48106 38.9275 9.50415 38.8813 9.50415H38.4311ZM42.9799 9.58727C42.5643 9.58727 42.2526 9.49722 42.0449 9.31714C41.8371 9.13244 41.7332 8.8577 41.7332 8.49292C41.7332 8.45136 41.7563 8.43059 41.8024 8.43059H42.2596C42.3011 8.43059 42.3219 8.44906 42.3219 8.486C42.3219 8.69378 42.3727 8.84385 42.4743 8.9362C42.5805 9.02855 42.7513 9.07472 42.9868 9.07472C43.2131 9.07472 43.3839 9.03778 43.4994 8.9639C43.6148 8.88541 43.6725 8.77459 43.6725 8.63145C43.6725 8.52524 43.6402 8.43751 43.5755 8.36825C43.5109 8.29437 43.4093 8.22742 43.2708 8.16739L42.4812 7.84186C42.2272 7.73565 42.0472 7.6156 41.941 7.48169C41.8348 7.34779 41.7817 7.17463 41.7817 6.96223C41.7817 6.65747 41.8786 6.42891 42.0726 6.27653C42.2665 6.11953 42.5551 6.04104 42.9383 6.04104C43.3308 6.04104 43.6356 6.12415 43.8526 6.29038C44.0696 6.45199 44.1781 6.68287 44.1781 6.983C44.1781 7.02456 44.155 7.04534 44.1089 7.04534H43.6517C43.6056 7.04534 43.5825 7.0084 43.5825 6.93452C43.5825 6.81447 43.5271 6.72212 43.4162 6.65747C43.3054 6.58821 43.153 6.55358 42.9591 6.55358C42.7606 6.55358 42.6128 6.58821 42.5158 6.65747C42.4189 6.72212 42.3704 6.8237 42.3704 6.96223C42.3704 7.06381 42.3958 7.14 42.4466 7.19079C42.502 7.24158 42.6105 7.30161 42.7721 7.37087L43.5617 7.70333C43.8064 7.80492 43.9842 7.92497 44.095 8.0635C44.2058 8.20202 44.2612 8.37979 44.2612 8.59681C44.2612 8.91542 44.1504 9.16015 43.9288 9.33099C43.7071 9.50184 43.3908 9.58727 42.9799 9.58727Z" fill="#3C3937"/>
<defs>
<clipPath id="clip0_535_1232">
<rect width="8.0806" height="8.0806" fill="white" transform="translate(5.3728 3.96387)"/>
</clipPath>
</defs>
</svg>
